<svg xmlns="http://www.w3.org/2000/svg" width="144.479" height="49.986" viewBox="0 0 144.479 49.986">
    <path data-name="Path 3257" d="m212.5 213.7 7.685 10.809z" transform="translate(-184.55 -184.458)" style="fill:#fff"/>
    <path data-name="Path 3258" d="M103.293 73.3a24.993 24.993 0 1 0 24.993 24.972A24.993 24.993 0 0 0 103.293 73.3zm17.474 18.453-10.867 3.52-1.125-3.5zm-16.933-12.33 3.707 11.455h-.021l1.52 4.686-1.437.479h-2.77l-1-3.082zm-.9 0v11.393h-3.64zm0 12.288v1.312l-.979 3.02H99.19l-13.225-4.332zM96.5 96.106l-1.041 3.5-9.706-7.019zm.833.271.791.25 2.937 2.145-.916 2.833-8.06 11.163zm-4.478 16.849 6.665-9.268 2.916 2.124zm21.077.125-13.871-10.122 3.395-4.582 2.791 3.895zm-6.1-10.1h.021l3-2.166 3.728 11.622zm-.521-.729-.687-.937-.916-2.812 2.978-2.145 2.957-.979 9.331-3.02z" transform="translate(-78.3 -73.3)" style="fill:#fff"/>
    <path data-name="Path 3259" d="m183.341 198.853 2.791-2.041 2.853 2.083-2.769-3.895-3.416 4.582 13.871 10.118-13.871-10.118z" transform="translate(-161.035 -169.653)" style="fill:#fff"/>
    <path data-name="Path 3260" d="M746.319 88.4a7.053 7.053 0 0 1-4.5 2.937l-1.019.163v.937h1.77V103.9h4.73V88.4z" transform="translate(-602.819 -83.255)" style="fill:#fff"/>
    <path data-name="Path 3261" d="M367.39 93.94c-2.208-.625-3.124-1.187-3.124-2.52s.9-1.9 2.145-1.9c2.02 0 3.166 1.416 3.728 3.52h1.061v-3.328a8.05 8.05 0 0 0-4.79-1.312c-3.291 0-5.748 1.916-5.748 5.124 0 2.666 1.583 4.186 4.6 5 2.333.646 3.249 1.25 3.249 2.562S367.536 103 366.1 103c-2.187 0-3.666-1.791-4.228-4.145H360.6l.25 3.811a9.156 9.156 0 0 0 5.248 1.458c3.395 0 6.165-1.52 6.165-5.04 0-3.184-1.999-4.352-4.873-5.144z" transform="translate(-301.804 -83.255)" style="fill:#fff"/>
    <path data-name="Path 3262" d="M426.522 107.016c1.166.146 1.416.292 1.416.75a2.059 2.059 0 0 1-.167.666l-2.041 5.082-2.145-5.124a2.044 2.044 0 0 1-.146-.625c0-.458.25-.6 1.416-.75v-.915H417.4v.916c.75.229.9.4 1.125.875l5.082 10.622-.333.687c-.354.791-.937 1.125-2.187 1.125a9.208 9.208 0 0 1-1.791-.208v1.77a2.113 2.113 0 0 0 1.874.854c1.562 0 2.416-1.041 3.27-3.02l5.04-11.83c.208-.479.375-.646 1.125-.875v-.916h-4.082z" transform="translate(-346.774 -97.269)" style="fill:#fff"/>
    <path data-name="Path 3263" d="M486.869 108.853c-1.333-.417-1.958-.75-1.958-1.625s.6-1.25 1.479-1.25a2.9 2.9 0 0 1 2.708 2.645h1.021v-2.6a7.11 7.11 0 0 0-3.833-1.023c-2.728 0-4.686 1.4-4.686 4 0 2.27 1.375 3.374 3.895 4.1 1.4.417 2.249.75 2.249 1.812s-.791 1.375-1.77 1.375c-1.666 0-2.853-1.333-3.249-3.082h-1.1l.125 2.957a7.469 7.469 0 0 0 4.27 1.1c3.041 0 5.04-1.479 5.04-4.124s-1.46-3.389-4.191-4.285z" transform="translate(-397.603 -96.398)" style="fill:#fff"/>
    <path data-name="Path 3264" d="M536.931 104.409c-.729 0-1.1-.417-1.1-1.354v-7.206h2.416V94.62h-2.416V91.6h-.958a11.12 11.12 0 0 1-4.769 3.457v.791h1.166v7.144c0 2.624 1.458 3.666 3.561 3.666a4.056 4.056 0 0 0 3.978-2.249l-.354-.542a2.6 2.6 0 0 1-1.524.542z" transform="translate(-436.002 -85.789)" style="fill:#fff"/>
    <path data-name="Path 3265" d="M650.132 115.351v-6.915c0-2.27-1.208-3.437-3.228-3.437a4.707 4.707 0 0 0-4 2.291c-.292-1.625-1.4-2.291-3.1-2.291a4.863 4.863 0 0 0-3.957 2.249l.083-2.249h-.875l-4.853 1.312V107l1.166.729v7.623c0 .646-.354.708-1.166.791v.9h6.644v-.9c-.812-.083-1-.146-1-.791V107.9a4.249 4.249 0 0 1 1.479-.292c.916 0 1.167.5 1.167 1.312v6.436c0 .646-.188.708-1 .791v.9h6.5v-.9c-.812-.083-1-.146-1-.791v-7.435a4.248 4.248 0 0 1 1.479-.312c.916 0 1.166.5 1.166 1.312v6.436c0 .646-.187.708-1 .791v.9h6.644v-.9c-.816-.089-1.149-.148-1.149-.797z" transform="translate(-515.254 -96.398)" style="fill:#fff"/>
    <path data-name="Path 3266" d="M580.81 114.351c-1.916 0-3.27-1.52-3.27-3.916h6.894v-.542a4.514 4.514 0 0 0-4.915-4.893c-3.27 0-6.019 2.437-6.019 6.394s2.583 5.873 5.832 5.873a5 5 0 0 0 5.186-4.165l-.458-.271a3.823 3.823 0 0 1-3.25 1.52zm-1.562-8.393c1.041 0 1.4 1.25 1.4 3.395h-3.082c.079-2.041.579-3.395 1.682-3.395z" transform="translate(-470.363 -96.398)" style="fill:#fff"/>
</svg>
